<?xml version="1.0" encoding="utf-8"?>
<!-- Generator: Adobe Illustrator 16.0.0, SVG Export Plug-In . SVG Version: 6.00 Build 0)  -->
<!DOCTYPE svg PUBLIC "-//W3C//DTD SVG 1.0//EN" "http://www.w3.org/TR/2001/REC-SVG-20010904/DTD/svg10.dtd" [
	<!ENTITY ns_flows "http://ns.adobe.com/Flows/1.0/">
	<!ENTITY ns_extend "http://ns.adobe.com/Extensibility/1.0/">
	<!ENTITY ns_ai "http://ns.adobe.com/AdobeIllustrator/10.0/">
	<!ENTITY ns_graphs "http://ns.adobe.com/Graphs/1.0/">
]>
<svg version="1.0" xmlns:x="&ns_extend;" xmlns:i="&ns_ai;" xmlns:graph="&ns_graphs;"
	 xmlns="http://www.w3.org/2000/svg" xmlns:xlink="http://www.w3.org/1999/xlink" xmlns:a="http://ns.adobe.com/AdobeSVGViewerExtensions/3.0/"
	 x="0px" y="0px" width="1400px" height="980px" viewBox="0 0 1400 980" enable-background="new 0 0 1400 980" xml:space="preserve"
	>
<pattern  width="24" height="24" patternUnits="userSpaceOnUse" id="New_Pattern" viewBox="2.8 -26.8 24 24" overflow="visible">
	<g>
		<polygon fill="none" points="2.8,-26.8 26.8,-26.8 26.8,-2.8 2.8,-2.8 		"/>
		<path fill="#FDF9F3" d="M23.6-2.8c0-1.6-1.3-2.8-2.8-2.8S18-4.4,18-2.8S19.3,0,20.8,0S23.6-1.3,23.6-2.8z"/>
		<path fill="#FDF9F3" d="M11.6-2.8c0-1.6-1.3-2.8-2.8-2.8S6-4.4,6-2.8S7.3,0,8.8,0S11.6-1.3,11.6-2.8z"/>
		<path fill="#FDF9F3" d="M29.6-14.8c0-1.6-1.3-2.8-2.8-2.8S24-16.4,24-14.8s1.3,2.8,2.8,2.8S29.6-13.3,29.6-14.8z"/>
		<path fill="#FDF9F3" d="M17.6-14.8c0-1.6-1.3-2.8-2.8-2.8S12-16.4,12-14.8s1.3,2.8,2.8,2.8S17.6-13.3,17.6-14.8z"/>
		<path fill="#FDF9F3" d="M5.6-14.8c0-1.6-1.3-2.8-2.8-2.8S0-16.4,0-14.8S1.3-12,2.8-12S5.6-13.3,5.6-14.8z"/>
		<path fill="#FDF9F3" d="M23.6-26.8c0-1.6-1.3-2.8-2.8-2.8S18-28.4,18-26.8s1.3,2.8,2.8,2.8S23.6-25.3,23.6-26.8z"/>
		<path fill="#FDF9F3" d="M11.6-26.8c0-1.6-1.3-2.8-2.8-2.8S6-28.4,6-26.8S7.3-24,8.8-24S11.6-25.3,11.6-26.8z"/>
	</g>
</pattern>
<g id="Background">
	<linearGradient id="SVGID_1_" gradientUnits="userSpaceOnUse" x1="0" y1="490" x2="1400" y2="490">
		<stop  offset="0" style="stop-color:#F0E73C"/>
		<stop  offset="1" style="stop-color:#5BC1CA"/>
		<a:midPointStop  offset="0" style="stop-color:#F0E73C"/>
		<a:midPointStop  offset="0.5" style="stop-color:#F0E73C"/>
		<a:midPointStop  offset="1" style="stop-color:#5BC1CA"/>
	</linearGradient>
	<path fill="url(#SVGID_1_)" d="M1400,0v980H0c0,0,0-0.1,0-0.3c0,0,0-38.4,0-100.1V491.8C0,249.2,0,0,0,0H1400z"/>
</g>
<g id="Elements">
	<g>
		<linearGradient id="SVGID_2_" gradientUnits="userSpaceOnUse" x1="0" y1="319.5835" x2="1400" y2="319.5835">
			<stop  offset="0" style="stop-color:#F0E73C"/>
			<stop  offset="1" style="stop-color:#5BDD89"/>
			<a:midPointStop  offset="0" style="stop-color:#F0E73C"/>
			<a:midPointStop  offset="0.5" style="stop-color:#F0E73C"/>
			<a:midPointStop  offset="1" style="stop-color:#5BDD89"/>
		</linearGradient>
		<path fill="url(#SVGID_2_)" d="M0,0c0,0,0,231.1,0,480.8h225.8v158.3c39.1-22.8,81-37.8,124.6-47.6c1.3-0.3,2.7-0.6,4-0.9
			c29.6-6.4,60-10.4,90.7-12.8c3.8-0.3,7.6-0.6,11.5-0.8c91.2-5.8,184.9,1.9,271.2,3.4c3.7,0.1,7.3,0.1,11,0.2
			c6,0.1,12,0.1,17.9,0.1c33-0.1,66.1-1,99.2-3.1c3.6-0.2,7.2-0.4,10.9-0.7c99-6.9,197.7-24.3,291.6-60.3c3.4-1.3,6.9-2.7,10.3-4.1
			c6.5-2.6,12.9-5.3,19.3-8.2c7.4-3.3,14.7-6.8,21.9-10.4c0.9-0.5,1.9-0.9,2.8-1.4c34.2-17.6,66.4-39.8,94.4-68.9
			c25.3-26.5,93.1-105.4,93.1-147.5V0H0z"/>
		<g>
			<path fill="url(#New_Pattern)" d="M471.5,202.7c-59.9-21.5-125.9,9.6-147.5,69.5c-21.5,59.9,9.6,125.9,69.5,147.5
				c59.9,21.5,125.9-9.6,147.5-69.5C562.5,290.2,531.4,224.2,471.5,202.7z"/>
			
				<linearGradient id="SVGID_3_" gradientUnits="userSpaceOnUse" x1="352.0708" y1="354.4219" x2="430.3794" y2="354.4219" gradientTransform="matrix(0.7766 0.6301 -0.6301 0.7766 372.1211 -111.5137)">
				<stop  offset="0" style="stop-color:#F0E400"/>
				<stop  offset="1" style="stop-color:#6BCF78"/>
				<a:midPointStop  offset="0" style="stop-color:#F0E400"/>
				<a:midPointStop  offset="0.5" style="stop-color:#F0E400"/>
				<a:midPointStop  offset="1" style="stop-color:#6BCF78"/>
			</linearGradient>
			<circle fill="url(#SVGID_3_)" cx="452.6" cy="410.2" r="39.2"/>
		</g>
		<linearGradient id="SVGID_4_" gradientUnits="userSpaceOnUse" x1="0" y1="467.8398" x2="1225.9385" y2="467.8398">
			<stop  offset="0" style="stop-color:#F0E400"/>
			<stop  offset="1" style="stop-color:#30BDCA"/>
			<a:midPointStop  offset="0" style="stop-color:#F0E400"/>
			<a:midPointStop  offset="0.5" style="stop-color:#F0E400"/>
			<a:midPointStop  offset="1" style="stop-color:#30BDCA"/>
		</linearGradient>
		<path fill="url(#SVGID_4_)" d="M1209.7,427.7c-15-39.6-37.7-78-66.6-109.1c-30.8-33.1-63.3-36.5-99-57.5
			c-67.4-39.7-32,90.7-70.9,130.1c-34.7,35-69.9,68.4-106.5,99.7c-3.6,3.1-7.2,6.2-10.9,9.2c-55.7,46.7-114.9,88.8-180.7,125
			c-168.3,92.6-266.8-7.8-320.7-113.8c-1.4-2.7-2.7-5.4-4-8.1c-39.2-80.4-5.3-128.2-5.3-128.2s-15-24,12.9-127.1
			c0.3-1.2,1.4-2.1,2.1-3.2c19.3-29.8,61-19.8,86.6-8.5c92.6,41,271.8,171.8,349.3,44.7c4.1-6.8,8-14.3,11.5-22.5
			c7.7-18,9.5-40.4,4.3-60.4H555v-27L336.1,12.1L33,0H0c0,0,0,249.2,0,491.8v387.9c3,3,6.2,5.9,9.4,8.7c2.3,2,4.6,4,7,5.9
			c24.9,20.2,51.3,32.4,83.9,29.5c44.3-4,81.3-39.9,123.2-44.9c31.6-3.8,40.1,35.2,60.5,49.8c32,22.9,72.6-14.5,50.8-47.6
			c-11.2-16.9-57.2-17.3-57.6-39.3c-0.6-32.8,80.6-12.8,95.1-11c52,6.2,104.2,11.2,156.4,15.7c103.2,8.9,207.8,12.6,310.4-4.8
			c62.9-10.7,128.4-28.9,186.1-55.8c98.6-46,183.8-134.2,198.7-243.3c0.7-5,1.2-10,1.6-15.1C1227.9,493.7,1222,459.9,1209.7,427.7z
			 M197.2,840.9c-12.1,35.6-79.6,45.6-110,41.1c-42.1-6.2-60-37.7-54-79.6c2.9-20.6,13.9-38.3,33.7-44c2.8-0.8,5.8-1.4,9-1.7
			c11.5,0.2,17.5,7.2,22.1,16.1c1.5,3,2.8,6.1,4.1,9.4C107,823,152,809,181,808c5,0,9,4,11.6,7.7c1.4,1.9,2.5,4,3.4,6
			C198.8,827.8,199.5,834.3,197.2,840.9z"/>
		<linearGradient id="SVGID_5_" gradientUnits="userSpaceOnUse" x1="0" y1="392.7422" x2="1169.2715" y2="392.7422">
			<stop  offset="0" style="stop-color:#79FFD0"/>
			<stop  offset="0.2816" style="stop-color:#53E9CB"/>
			<stop  offset="0.7677" style="stop-color:#17C6C2"/>
			<stop  offset="1" style="stop-color:#00B8BF"/>
			<a:midPointStop  offset="0" style="stop-color:#79FFD0"/>
			<a:midPointStop  offset="0.4605" style="stop-color:#79FFD0"/>
			<a:midPointStop  offset="1" style="stop-color:#00B8BF"/>
		</linearGradient>
		<path fill="url(#SVGID_5_)" d="M1168.6,443.8c-1.3-15.4-4.3-31.1-9.5-47c-12.9-40.2-37.9-82.8-71.5-113
			c-36.3-32.7-82.7-51.1-134.9-36.8c-109.3,29.8-140,174.4-214.1,255.8c-4.2,4.6-8.5,9-12.9,13.1c-23.9,22.2-52.4,37.8-88.8,41.9
			c-62.4,6.9-129-18.5-180.5-58c-17.8-13.7-33.8-29.1-47.2-45.4c-41-49.9-69.6-131.9-51.3-197.5c2-7.2,4.6-14.3,7.8-21
			c32-67.7,117.6-56.6,166.4-13.5c60.5,53.4,132.5,135.4,225.1,93.7c14.5-6.5,27.8-15,38.7-25.1c27.5-25.4,40-61.1,20.1-102
			c0,0,0-0.1,0-0.1c-5.9-12.1-12.5-19.7-20.9-24.2c-8.3-4.5-18.3-6.1-31.2-6.1c-49.4-0.2-94.8,28-143.3,29.7
			C545.8,190.9,496.7,76.1,473.8,0H0c0,0,0,257.9,0,509.1c25.6,30.8,55.3,59.4,84.5,82.6c47.8,37.8,102.3,68.7,158.4,96
			c37.4,18.2,75.4,34.7,112.6,50.5c219.3,93.4,462.7,36.3,667.9-66.2C1110.6,628.5,1176.6,542.1,1168.6,443.8z M292.3,135.6
			c18.4-38.3,53.8-46.1,92-28.1c18.8,8.9,32.5,24.6,32.1,45.2c-0.1,2.9-0.4,6-1.1,9.1c-3.6,11-12.1,14.6-22,16.3
			c-3.3,0.6-6.7,0.9-10.2,1.2c-40.4-7.4-40.3,39.7-47.9,67.7c-1.5,4.8-6.5,7.4-10.8,8.9c-2.3,0.7-4.5,1.2-6.8,1.5
			c-6.7,0.8-13-0.4-18.7-4.6C268.6,230.7,279,163.3,292.3,135.6z M336.1,312.2c0,14.9-12.1,27-27,27c-14.9,0-27-12.1-27-27
			c0-14.9,12.1-27,27-27C324,285.2,336.1,297.2,336.1,312.2z"/>
		<path fill="url(#New_Pattern)" d="M1083.8,84.9c66.4-56.7,148.4-42.7,206.4,14.6c113,111.8,65.1,269.4-4.5,390.4
			c23.8-67.5-12.6-137.1-55.9-187.3c-22.8-26.5-48.4-50.3-78.2-68.6c-24.4-14.9-59.5-27.3-75.8-52.5
			C1056.7,152,1055.4,109.2,1083.8,84.9z"/>
		
			<linearGradient id="SVGID_6_" gradientUnits="userSpaceOnUse" x1="1074.9814" y1="324.4897" x2="1301.8848" y2="324.4897" gradientTransform="matrix(0.8962 -0.4437 0.4437 0.8962 44.8027 566.1599)">
			<stop  offset="0.2205" style="stop-color:#30BDCA"/>
			<stop  offset="0.3021" style="stop-color:#36BEC3"/>
			<stop  offset="0.4173" style="stop-color:#48C2B1"/>
			<stop  offset="0.5525" style="stop-color:#65C893"/>
			<stop  offset="0.7029" style="stop-color:#8DD068"/>
			<stop  offset="0.8639" style="stop-color:#C0DA33"/>
			<stop  offset="1" style="stop-color:#F0E400"/>
			<a:midPointStop  offset="0.2205" style="stop-color:#30BDCA"/>
			<a:midPointStop  offset="0.6331" style="stop-color:#30BDCA"/>
			<a:midPointStop  offset="1" style="stop-color:#F0E400"/>
		</linearGradient>
		<path fill="url(#SVGID_6_)" d="M1129.7,158.2c71.2-40.7,144.4-13.4,187.8,49.7c84.7,123,12.8,259.9-72.6,359.3
			c33.8-58.1,12.4-128.6-18.7-182.6c-16.4-28.5-35.8-54.8-60.1-77c-19.9-18-50.1-35.6-60.7-61.8
			C1092.8,215.3,1099.2,175.6,1129.7,158.2z"/>
		
			<linearGradient id="SVGID_7_" gradientUnits="userSpaceOnUse" x1="1061.3623" y1="424.6846" x2="1174.8203" y2="424.6846" gradientTransform="matrix(0.74 -0.6726 0.6726 0.74 197.7656 545.3252)">
			<stop  offset="0" style="stop-color:#30BDCA"/>
			<stop  offset="0.1011" style="stop-color:#38BFC2"/>
			<stop  offset="0.2574" style="stop-color:#4CC3AC"/>
			<stop  offset="0.4496" style="stop-color:#6ECA89"/>
			<stop  offset="0.6701" style="stop-color:#9DD357"/>
			<stop  offset="0.9115" style="stop-color:#D8DF19"/>
			<stop  offset="1" style="stop-color:#F0E400"/>
			<a:midPointStop  offset="0" style="stop-color:#30BDCA"/>
			<a:midPointStop  offset="0.6123" style="stop-color:#30BDCA"/>
			<a:midPointStop  offset="1" style="stop-color:#F0E400"/>
		</linearGradient>
		<path fill="url(#SVGID_7_)" d="M1227.6,42.2c28.7-29.3,67.6-26.2,97.1-1.9c57.6,47.5,41.8,123.2,14.4,182.7
			c8.3-32.6-11.7-63.6-34.1-85.2c-11.8-11.4-24.7-21.5-39.5-28.8c-12-6-29-10.3-37.7-21.4C1217.7,74.7,1215.3,54.8,1227.6,42.2z"/>
		<pattern  id="SVGID_8_" xlink:href="#New_Pattern" patternTransform="matrix(1 0 0 1 -3 -6)">
		</pattern>
		<circle fill="url(#SVGID_8_)" cx="424.1" cy="886.2" r="66"/>
		<linearGradient id="SVGID_9_" gradientUnits="userSpaceOnUse" x1="345.085" y1="936.1602" x2="399.0898" y2="936.1602">
			<stop  offset="0" style="stop-color:#F0E400"/>
			<stop  offset="1" style="stop-color:#6BCF78"/>
			<a:midPointStop  offset="0" style="stop-color:#F0E400"/>
			<a:midPointStop  offset="0.5" style="stop-color:#F0E400"/>
			<a:midPointStop  offset="1" style="stop-color:#6BCF78"/>
		</linearGradient>
		<circle fill="url(#SVGID_9_)" cx="372.1" cy="936.2" r="27"/>
		<linearGradient id="SVGID_10_" gradientUnits="userSpaceOnUse" x1="922.085" y1="907.1602" x2="976.0898" y2="907.1602">
			<stop  offset="0" style="stop-color:#6BCF78"/>
			<stop  offset="1" style="stop-color:#F0E400"/>
			<a:midPointStop  offset="0" style="stop-color:#6BCF78"/>
			<a:midPointStop  offset="0.5" style="stop-color:#6BCF78"/>
			<a:midPointStop  offset="1" style="stop-color:#F0E400"/>
		</linearGradient>
		<circle fill="url(#SVGID_10_)" cx="949.1" cy="907.2" r="27"/>
		
			<linearGradient id="SVGID_11_" gradientUnits="userSpaceOnUse" x1="91.2129" y1="-581.356" x2="290.3945" y2="-581.356" gradientTransform="matrix(0.9569 -0.2903 0.2903 0.9569 634.5479 703.6719)">
			<stop  offset="0" style="stop-color:#79FFD0"/>
			<stop  offset="0.2816" style="stop-color:#53E9CB"/>
			<stop  offset="0.7677" style="stop-color:#17C6C2"/>
			<stop  offset="1" style="stop-color:#00B8BF"/>
			<a:midPointStop  offset="0" style="stop-color:#79FFD0"/>
			<a:midPointStop  offset="0.4605" style="stop-color:#79FFD0"/>
			<a:midPointStop  offset="1" style="stop-color:#00B8BF"/>
		</linearGradient>
		<path fill="url(#SVGID_11_)" d="M546.6,99.6c6.7,21,26,40.6,49.6,52.3c47.1,23.3,142.6,6.9,151.5-58.5
			c10.3-76.1-103.1,15-127.4-40.4c0,0,0,0,0,0C587.6,11.9,532.1,53.8,546.6,99.6z"/>
		<linearGradient id="SVGID_12_" gradientUnits="userSpaceOnUse" x1="1004.8213" y1="703.3799" x2="1400" y2="703.3799">
			<stop  offset="0" style="stop-color:#F0E400"/>
			<stop  offset="1" style="stop-color:#30BDCA"/>
			<a:midPointStop  offset="0" style="stop-color:#F0E400"/>
			<a:midPointStop  offset="0.5" style="stop-color:#F0E400"/>
			<a:midPointStop  offset="1" style="stop-color:#30BDCA"/>
		</linearGradient>
		<path fill="url(#SVGID_12_)" d="M1328,555.8c-15.7,28.8-44.4,41.6-73.5,52.3c-48.4,17.7-114.4,25.4-138.8,78
			c-25.8,55.5,16.6,93-50.3,129.5c-21.2,11.5-86.5,46.8-49.3,72c36,24.4,72.5-17.1,100.6,23.9c3.4,5,24.4,68.5,19.2,68.5
			c1.7,0,264.2,0,264.2,0V426.8C1395.2,471.7,1349.3,516.7,1328,555.8z M1258.1,931.9c-8.4,23.1-37,38.2-60.2,27
			c-20-9.6-13.4-24.3-19.8-40.8c-7.8-19.9-12.9-25.5-31.3-37c-22.1-13.8-74.5-26.8-41.4-59.5c43.9-43.5,124.2-1.1,145.9,43.1
			C1262,886.8,1265.2,912.4,1258.1,931.9z"/>
		<g>
			<g>
				<g>
					<g>
						<g>
							<g>
								<path fill="#FFFFFF" d="M373.3,966.4c-20.4,0-37-16.6-37-37c0-20.4,16.6-37,37-37s37,16.6,37,37
									C410.3,949.8,393.7,966.4,373.3,966.4z M373.3,894.4c-19.3,0-35,15.7-35,35s15.7,35,35,35s35-15.7,35-35
									S392.6,894.4,373.3,894.4z"/>
							</g>
						</g>
					</g>
				</g>
			</g>
			<g>
				<g>
					<g>
						<g>
							<g>
								<path fill="#FFFFFF" d="M1183.1,954.7c-0.8-5.3-1.5-10.8-3.8-16.6c-8.3-21.3-13.7-27.7-34.2-40.5c-4.9-3-11-6-17.5-9.1
									c-16.8-8.1-35.8-17.3-38-30.6c-1.2-7,2.4-14.6,11-23.1c13-12.9,29.5-19.4,49-19.4c44.6,0,91.1,34,106.6,65.8
									c11.9,24.3,14.7,51.9,7.5,71.9c-3.9,10.8-12,20.1-22.3,26h3.8c9.4-6.2,16.6-15.1,20.4-25.3c7.5-20.8,4.7-48.3-7.6-73.4
									c-15.8-32.3-63.1-66.9-108.4-66.9c-20.1,0-37.1,6.7-50.4,20c-9.1,9-12.9,17.1-11.6,24.9c2.4,14.2,21.9,23.7,39.1,32
									c6.4,3.1,12.5,6.1,17.3,9c20.2,12.6,25.2,18.5,33.4,39.5c2.2,5.6,2.9,11,3.7,16.2c1.3,8.8,2.5,17.3,10.9,24.1h3.4
									C1185.7,972.6,1184.5,964.2,1183.1,954.7z"/>
								<path fill="#FFFFFF" d="M1399.1,466c-12.7,26.4-32,52.1-56.1,74.8c-25.5,24-54.8,43-82.7,53.4c-10.9,4.1-22.5,7.6-34.7,11.4
									c-46.4,14.2-94.4,28.9-115.4,75.2c-10.8,23.8-10.6,44.8-10.4,63.3c0.3,30.5,0.5,54.5-43.3,79l-0.5,0.3
									c-19.2,10.7-64.1,35.7-65.3,60.1c-0.4,7.8,3.8,14.8,12.5,20.8c9.2,6.4,19.1,9.3,31.3,9.3h0c7.1,0,14.2-1,21-2
									c6.7-0.9,13-1.8,19.3-1.8c10.6,0,24.4,2.4,36.7,20.7c2.1,3.1,10.6,28.3,16.2,48.5h2.1c-5.7-20.8-14.4-46.3-16.6-49.6
									c-12.8-19.1-27.3-21.6-38.4-21.6c-6.4,0-12.8,0.9-19.6,1.9c-6.8,1-13.7,1.9-20.7,1.9h0c-11.7,0-21.3-2.9-30.1-9
									c-8.1-5.6-12-12-11.6-19.1c1.1-23.2,47-48.8,64.2-58.4l0.5-0.3c44.9-25.1,44.7-50.9,44.4-80.8c-0.2-18.3-0.4-39.1,10.2-62.5
									c20.6-45.5,68.2-60,114.2-74.1c12.3-3.8,23.9-7.3,34.9-11.4c28.1-10.5,57.7-29.6,83.4-53.8c23.1-21.8,41.9-46.4,54.7-71.8
									V466z"/>
							</g>
						</g>
					</g>
				</g>
			</g>
			<g>
				<g>
					<g>
						<path fill="#FFFFFF" d="M1179,439.3c-0.1-1.3-0.2-2.7-0.3-4c-1.4-17.2-4.7-34.6-10-51.6c-14.9-47.8-42.5-93-75.9-124.1
							c-32.2-30-68.7-45.9-105.6-45.9c-12.5,0-25.3,1.8-37.9,5.4c-33.6,9.5-63.3,30.6-90.7,64.5C834.3,313.7,814,351,794.3,387
							c-21.6,39.6-44,80.6-71.7,112.2c-2,2.3-3.9,4.3-5.7,6.3c-29.7,31.6-62.8,49.1-101.2,53.5c-7.1,0.8-14.5,1.2-21.9,1.2
							c-52.2,0-108.5-20.3-158.5-57.1c-3.2-2.3-6.4-4.8-9.6-7.4c-18.9-15-35.6-31.7-49.8-49.5c-22.2-28-40.1-63.9-50.4-101.2
							c-11.4-41.1-12.6-80.5-3.6-114c2.1-7.9,4.9-15.6,8.2-22.8c15.4-33.7,44.3-52.2,81.4-52.2c32.2,0,67,14.1,92.9,37.8
							c7.2,6.5,14.3,13.3,21.9,20.5c46.8,44.4,99.9,94.7,162.9,94.7c18,0,36.3-4.2,54.2-12.6c15.9-7.4,29.7-16.7,41.1-27.6
							c33.1-31.6,40.7-71.6,21.6-112.5l-0.1-0.2c-6.3-13.3-13.4-21.9-22.5-27c-8.3-4.7-18.6-6.9-33.4-6.9h-0.5
							c-27,0-53.3,8.9-78.6,17.4c-23.5,7.9-47.9,16.1-72.4,17c-0.9,0-1.8,0.1-2.7,0.1c-29,0-56.7-17.3-82.4-51.4
							C493.7,79.1,475.6,43.7,459.6,0h-2.1c16.2,44.2,34.5,80,54.5,106.5c26.1,34.6,54.3,52.2,84,52.2c0.9,0,1.9,0,2.8-0.1
							c24.9-0.9,49.3-9.2,73-17.1c25.2-8.5,51.3-17.3,78-17.3h0.5c14.5,0,24.5,2.1,32.5,6.6c8.6,4.9,15.5,13.2,21.6,26l0.1,0.2
							c18.9,40.1,11.4,79.3-21.1,110.4c-11.2,10.8-24.9,19.9-40.6,27.2C725,302.9,707,307,689.3,307c-62.3,0-115-50-161.6-94.1
							c-7.6-7.2-14.8-14-22-20.6c-26.3-24-61.5-38.3-94.2-38.3c-38,0-67.5,19-83.3,53.4c-3.3,7.3-6.1,15.1-8.3,23.2
							c-9.1,33.8-7.8,73.5,3.6,115c10.4,37.5,28.4,73.7,50.8,101.9c14.3,18,31.1,34.7,50.1,49.8c3.2,2.6,6.5,5.1,9.7,7.4
							c50.4,37.1,107,57.5,159.6,57.5c7.5,0,14.9-0.4,22.2-1.3c38.9-4.5,72.4-22.2,102.4-54.1c1.9-2,3.7-4,5.8-6.3
							c27.9-31.7,50.3-72.8,72-112.5c19.6-36,39.9-73.1,64.1-103.1c27.1-33.6,56.4-54.4,89.6-63.8c12.4-3.5,25-5.3,37.3-5.3
							c36.4,0,72.4,15.7,104.3,45.3c33.1,30.9,60.6,75.8,75.3,123.2c5.2,16.9,8.6,34.1,9.9,51.2c0.1,1.3,0.2,2.7,0.3,4
							c3,49.8-10.9,99.7-40.4,144.3c-27.5,41.6-66.7,76.4-113.2,100.4c-74.4,38.4-148.5,68.4-220.5,89.2
							c-80.3,23.1-158.5,34.9-232.4,34.9h0c-89.9,0-174.9-17.4-252.6-51.7c-72-31.7-148-66.4-216.2-109.5
							c-26.4-16.7-49.5-33.3-70.9-50.7c-9.2-7.5-19-16.1-30.9-26.9v2.7c11.3,10.3,20.7,18.4,29.6,25.7
							c21.4,17.5,44.6,34.1,71.1,50.9c68.3,43.2,144.4,77.8,216.4,109.6c78,34.4,163.2,51.8,253.4,51.8h0c74.1,0,152.5-11.8,233-35
							c72.1-20.8,146.4-50.8,220.9-89.3c46.8-24.2,86.2-59.1,114-101.1C1168,539.9,1182.1,489.6,1179,439.3z"/>
					</g>
					<g>
						<path fill="#FFFFFF" d="M269.2,322c-16.3,0-29.5-13.7-29.5-30.5c0-16.8,13.3-30.5,29.5-30.5s29.5,13.7,29.5,30.5
							C298.8,308.3,285.5,322,269.2,322z M269.2,262.9c-15.2,0-27.5,12.8-27.5,28.5c0,15.7,12.4,28.5,27.5,28.5s27.5-12.8,27.5-28.5
							C296.8,275.7,284.4,262.9,269.2,262.9z"/>
					</g>
					<g>
						<path fill="#FFFFFF" d="M274.4,232.8c-6.1,0-11.6-1.8-16.4-5.4c-32.3-24.4-21.9-98.3-7.4-129.4c12.6-27.1,32.9-41.4,58.7-41.4
							c12.6,0,26,3.5,39.9,10.3c22.3,10.9,34.9,29.3,34.5,50.3c-0.1,3.3-0.5,6.7-1.2,10.1c-4.2,13.5-15.1,17.1-24,18.6
							c-3,0.5-6.4,0.9-10.9,1.3l-0.1,0l-0.1,0c-2.9-0.6-5.7-0.8-8.3-0.8c-26.7,0-32.3,29.6-37.3,55.7c-1.3,6.6-2.4,12.9-3.9,18.5
							c-1.4,4.5-5.5,8.1-12,10.4c-2.5,0.8-4.9,1.4-7.3,1.7C277.1,232.7,275.7,232.8,274.4,232.8z M309.2,58.5
							c-25,0-44.6,13.9-56.9,40.3c-14.2,30.7-24.7,103.3,6.8,127c5.4,4.1,11.8,5.7,19,4.8c2.3-0.3,4.6-0.8,7-1.6
							c4.1-1.4,9.3-4.2,10.7-9c1.5-5.5,2.6-11.8,3.9-18.3c5.1-26.9,10.9-57.3,39.2-57.3c2.7,0,5.6,0.3,8.5,0.8
							c4.3-0.3,7.6-0.7,10.6-1.3c8.9-1.6,18.6-4.8,22.4-17.2c0.7-3.2,1-6.5,1.1-9.7c0.4-20.2-11.7-37.9-33.3-48.5
							C334.7,61.9,321.5,58.5,309.2,58.5z"/>
					</g>
				</g>
			</g>
		</g>
		<g>
			<path fill="#FFFFFF" d="M798.4,110.5l-1.4,2.1l-2.1-1.4c-0.7-0.4-1.5-0.2-2,0.4c-0.4,0.7-0.2,1.5,0.4,2l2.1,1.4l-1.4,2.1
				c-0.4,0.7-0.2,1.5,0.4,2c0.7,0.4,1.5,0.2,2-0.4l1.4-2.1l2.1,1.4c0.7,0.4,1.5,0.2,2-0.4c0.4-0.7,0.2-1.5-0.4-2l-2.1-1.4l1.4-2.1
				c0.4-0.7,0.2-1.5-0.4-2C799.7,109.7,798.8,109.9,798.4,110.5z"/>
			<path fill="#FFFFFF" d="M768.3,96.1l0.5,2.5l-2.5,0.5c-0.8,0.2-1.2,0.9-1.1,1.7c0.2,0.8,0.9,1.3,1.7,1.1l2.5-0.5l0.5,2.5
				c0.2,0.8,0.9,1.2,1.7,1.1c0.8-0.2,1.3-0.9,1.1-1.7l-0.5-2.5l2.5-0.5c0.8-0.2,1.3-0.9,1.1-1.7c-0.2-0.8-0.9-1.3-1.7-1.1l-2.5,0.5
				l-0.5-2.5c-0.2-0.8-0.9-1.3-1.7-1.1C768.7,94.5,768.2,95.3,768.3,96.1z"/>
			<circle fill="#FFFFFF" cx="791.5" cy="92.3" r="2.6"/>
		</g>
		<g>
			<path fill="#FFFFFF" d="M1367.9,54.7l-2,1.5l-1.5-2c-0.5-0.6-1.3-0.8-2-0.3c-0.6,0.5-0.8,1.3-0.3,2l1.5,2l-2,1.5
				c-0.6,0.5-0.8,1.3-0.3,2c0.5,0.6,1.3,0.8,2,0.3l2-1.5l1.5,2c0.5,0.6,1.3,0.8,2,0.3c0.6-0.5,0.8-1.3,0.3-2l-1.5-2l2-1.5
				c0.6-0.5,0.8-1.3,0.3-2C1369.4,54.4,1368.6,54.3,1367.9,54.7z"/>
			<path fill="#FFFFFF" d="M1345.4,30.1l-0.4,2.5l-2.5-0.4c-0.8-0.1-1.5,0.4-1.6,1.2c-0.1,0.8,0.4,1.5,1.2,1.6l2.5,0.4l-0.4,2.5
				c-0.1,0.8,0.4,1.5,1.2,1.6c0.8,0.1,1.5-0.4,1.6-1.2l0.4-2.5l2.5,0.4c0.8,0.1,1.5-0.4,1.6-1.2c0.1-0.8-0.4-1.5-1.2-1.6l-2.5-0.4
				l0.4-2.5c0.1-0.8-0.4-1.5-1.2-1.6C1346.3,28.8,1345.6,29.3,1345.4,30.1z"/>
			<circle fill="#FFFFFF" cx="1368.3" cy="35.2" r="2.6"/>
		</g>
		<g>
			<path fill="#FFFFFF" d="M451.4,748.3l-0.7,2.4l-2.4-0.7c-0.8-0.2-1.5,0.2-1.8,0.9c-0.2,0.7,0.2,1.5,0.9,1.8l2.4,0.7l-0.7,2.4
				c-0.2,0.8,0.2,1.5,0.9,1.8c0.7,0.2,1.5-0.2,1.8-0.9l0.7-2.4l2.4,0.7c0.7,0.2,1.5-0.2,1.8-0.9c0.2-0.8-0.2-1.5-0.9-1.8l-2.4-0.7
				l0.7-2.4c0.2-0.8-0.2-1.5-0.9-1.8C452.5,747.2,451.7,747.6,451.4,748.3z"/>
			<path fill="#FFFFFF" d="M418.6,742.5l1.2,2.2l-2.2,1.2c-0.7,0.4-1,1.2-0.6,1.9c0.4,0.7,1.2,1,1.9,0.6l2.2-1.2l1.2,2.2
				c0.4,0.7,1.2,1,1.9,0.6c0.7-0.4,1-1.2,0.6-1.9l-1.2-2.2l2.2-1.2c0.7-0.4,1-1.2,0.6-1.9c-0.4-0.7-1.2-1-1.9-0.6l-2.2,1.2l-1.2-2.2
				c-0.4-0.7-1.2-1-1.9-0.6C418.5,740.9,418.2,741.8,418.6,742.5z"/>
			<circle fill="#FFFFFF" cx="439.9" cy="732.6" r="2.6"/>
		</g>
		<g>
			<path fill="#FFFFFF" d="M39.8,627.8l0.8,2.4l-2.4,0.8c-0.7,0.2-1.1,1.1-0.9,1.8c0.2,0.7,1.1,1.1,1.8,0.9l2.4-0.8l0.8,2.4
				c0.2,0.7,1.1,1.1,1.8,0.9c0.7-0.2,1.1-1.1,0.9-1.8l-0.8-2.4l2.4-0.8c0.7-0.2,1.1-1,0.9-1.8c-0.2-0.7-1.1-1.1-1.8-0.9l-2.4,0.8
				l-0.8-2.4c-0.2-0.7-1.1-1.1-1.8-0.9C39.9,626.2,39.5,627,39.8,627.8z"/>
			<path fill="#FFFFFF" d="M9.6,642l2.3,1.1l-1.1,2.2c-0.4,0.7-0.1,1.6,0.6,1.9c0.7,0.3,1.6,0.1,1.9-0.6l1.1-2.2l2.3,1.1
				c0.7,0.4,1.6,0.1,1.9-0.6c0.4-0.7,0.1-1.6-0.6-1.9l-2.2-1.1l1.1-2.2c0.4-0.7,0.1-1.6-0.6-1.9c-0.7-0.4-1.6-0.1-1.9,0.6l-1.1,2.2
				l-2.2-1.1c-0.7-0.4-1.6-0.1-1.9,0.6C8.6,640.8,8.9,641.7,9.6,642z"/>
			<path fill="#FFFFFF" d="M20.4,619.1c1.4-0.5,2.9,0.3,3.3,1.7c0.5,1.4-0.3,2.9-1.7,3.3c-1.4,0.5-2.9-0.3-3.3-1.7
				C18.2,621.1,19,619.6,20.4,619.1z"/>
		</g>
		<g>
			<path fill="#FFFFFF" d="M1142.2,782.6l0.8,2.4l-2.4,0.8c-0.7,0.2-1.1,1.1-0.9,1.8c0.2,0.7,1.1,1.1,1.8,0.9l2.4-0.8l0.8,2.4
				c0.2,0.7,1.1,1.1,1.8,0.9c0.7-0.2,1.1-1.1,0.9-1.8l-0.8-2.4l2.4-0.8c0.7-0.2,1.1-1,0.9-1.8c-0.2-0.7-1.1-1.1-1.8-0.9l-2.4,0.8
				l-0.8-2.4c-0.2-0.7-1.1-1.1-1.8-0.9C1142.4,781.1,1142,781.9,1142.2,782.6z"/>
			<path fill="#FFFFFF" d="M1112,796.9l2.3,1.1l-1.1,2.2c-0.4,0.7-0.1,1.6,0.6,1.9c0.7,0.3,1.6,0.1,1.9-0.6l1.1-2.2l2.2,1.1
				c0.7,0.4,1.6,0.1,1.9-0.6c0.4-0.7,0.1-1.6-0.6-1.9l-2.2-1.1l1.1-2.2c0.4-0.7,0.1-1.6-0.6-1.9c-0.7-0.4-1.6-0.1-1.9,0.6l-1.1,2.2
				l-2.2-1.1c-0.7-0.4-1.6-0.1-1.9,0.6C1111.1,795.7,1111.3,796.5,1112,796.9z"/>
			<path fill="#FFFFFF" d="M1122.8,774c1.4-0.5,2.9,0.3,3.3,1.7s-0.3,2.9-1.7,3.3c-1.4,0.5-2.9-0.3-3.3-1.7
				C1120.7,776,1121.4,774.5,1122.8,774z"/>
		</g>
		<g>
			<path fill="#FFFFFF" d="M447.1,212.6l0.4-2.5l2.5,0.4c0.8,0.1,1.5-0.4,1.6-1.2c0.1-0.8-0.4-1.5-1.2-1.6l-2.5-0.4l0.4-2.5
				c0.1-0.8-0.4-1.5-1.2-1.6c-0.8-0.1-1.5,0.4-1.6,1.2l-0.4,2.5l-2.5-0.4c-0.8-0.1-1.5,0.4-1.6,1.2c-0.1,0.8,0.4,1.5,1.2,1.6
				l2.5,0.4l-0.4,2.5c-0.1,0.8,0.4,1.5,1.2,1.6C446.3,214,447,213.4,447.1,212.6z"/>
			<path fill="#FFFFFF" d="M480.4,213.5l-1.5-2l2-1.5c0.6-0.5,0.8-1.4,0.3-2c-0.5-0.6-1.4-0.8-2-0.3l-2,1.5l-1.5-2
				c-0.5-0.6-1.4-0.8-2-0.3c-0.6,0.5-0.8,1.4-0.3,2l1.5,2l-2,1.5c-0.6,0.5-0.8,1.4-0.3,2c0.5,0.6,1.4,0.8,2,0.3l2-1.5l1.5,2
				c0.5,0.6,1.4,0.8,2,0.3C480.8,215,480.9,214.1,480.4,213.5z"/>
			<circle fill="#FFFFFF" cx="460.9" cy="226.4" r="2.6"/>
		</g>
		<g>
			<path fill="#FFFFFF" d="M316.3,79.8l1.3,2.1l-2.1,1.3c-0.7,0.4-0.9,1.3-0.4,2c0.4,0.7,1.3,0.9,2,0.4l2.1-1.3l1.3,2.1
				c0.4,0.7,1.3,0.9,2,0.4c0.7-0.4,0.9-1.3,0.4-2l-1.3-2.1l2.1-1.3c0.7-0.4,0.9-1.3,0.4-2c-0.4-0.7-1.3-0.9-2-0.4l-2.1,1.3l-1.3-2.1
				c-0.4-0.7-1.3-0.9-2-0.4C316.1,78.2,315.9,79.1,316.3,79.8z"/>
			<path fill="#FFFFFF" d="M290.4,100.8l2.5,0.6l-0.6,2.5c-0.2,0.8,0.3,1.5,1.1,1.7c0.8,0.2,1.5-0.3,1.7-1.1l0.6-2.5l2.5,0.6
				c0.8,0.2,1.5-0.3,1.7-1.1c0.2-0.8-0.3-1.5-1.1-1.7l-2.5-0.6l0.6-2.5c0.2-0.8-0.3-1.5-1.1-1.7c-0.8-0.2-1.5,0.3-1.7,1.1l-0.6,2.5
				l-2.5-0.6c-0.8-0.2-1.5,0.3-1.7,1.1C289.2,99.9,289.7,100.6,290.4,100.8z"/>
			<circle fill="#FFFFFF" cx="296.8" cy="78.3" r="2.6"/>
		</g>
		<g>
			<path fill="#FFFFFF" d="M1137,186.8l1.7,1.8l-1.8,1.7c-0.6,0.5-0.6,1.4-0.1,2c0.5,0.6,1.4,0.6,2,0.1l1.8-1.7l1.7,1.8
				c0.5,0.6,1.4,0.6,2,0.1c0.6-0.5,0.6-1.4,0.1-2l-1.7-1.8l1.8-1.7c0.6-0.5,0.6-1.4,0.1-2c-0.5-0.6-1.4-0.6-2-0.1l-1.8,1.7l-1.7-1.8
				c-0.5-0.6-1.4-0.6-2-0.1C1136.5,185.3,1136.5,186.2,1137,186.8z"/>
			<path fill="#FFFFFF" d="M1115.6,212.4l2.5,0.1l-0.1,2.5c0,0.8,0.6,1.4,1.4,1.5c0.8,0,1.4-0.6,1.5-1.4l0.1-2.5l2.5,0.1
				c0.8,0,1.4-0.6,1.5-1.4c0-0.8-0.6-1.4-1.4-1.5l-2.5-0.1l0.1-2.5c0-0.8-0.6-1.4-1.4-1.5c-0.8,0-1.4,0.6-1.5,1.4l-0.1,2.5l-2.5-0.1
				c-0.8,0-1.4,0.6-1.5,1.4C1114.2,211.7,1114.9,212.4,1115.6,212.4z"/>
			<circle fill="#FFFFFF" cx="1117.6" cy="189" r="2.6"/>
		</g>
		<g>
			<path fill="#FFFFFF" d="M1306.5,541.1l1.3,2.1l-2.1,1.3c-0.7,0.4-0.9,1.3-0.5,2c0.4,0.7,1.3,0.9,2,0.5l2.1-1.3l1.3,2.1
				c0.4,0.7,1.3,0.9,2,0.5c0.7-0.4,0.9-1.3,0.5-2l-1.3-2.1l2.1-1.3c0.7-0.4,0.9-1.3,0.5-2s-1.3-0.9-2-0.5l-2.1,1.3l-1.3-2.1
				c-0.4-0.7-1.3-0.9-2-0.5C1306.3,539.6,1306.1,540.5,1306.5,541.1z"/>
			<path fill="#FFFFFF" d="M1280.5,562l2.5,0.6l-0.6,2.4c-0.2,0.8,0.3,1.5,1.1,1.7c0.8,0.2,1.5-0.3,1.7-1.1l0.6-2.4l2.5,0.6
				c0.8,0.2,1.5-0.3,1.7-1.1c0.2-0.8-0.3-1.5-1.1-1.7l-2.4-0.6l0.6-2.4c0.2-0.8-0.3-1.5-1.1-1.7c-0.8-0.2-1.5,0.3-1.7,1.1l-0.6,2.4
				l-2.4-0.6c-0.8-0.2-1.5,0.3-1.7,1.1C1279.2,561,1279.7,561.8,1280.5,562z"/>
			<circle fill="#FFFFFF" cx="1287" cy="539.5" r="2.6"/>
		</g>
		<g>
			<path fill="#FFFFFF" d="M1009.8,820l1.3,2.1l-2.1,1.3c-0.7,0.4-0.9,1.3-0.5,2c0.4,0.7,1.3,0.9,2,0.5l2.1-1.3l1.3,2.1
				c0.4,0.7,1.3,0.9,2,0.5c0.7-0.4,0.9-1.3,0.5-2l-1.3-2.1l2.1-1.3c0.7-0.4,0.9-1.3,0.5-2s-1.3-0.9-2-0.5l-2.1,1.3l-1.3-2.1
				c-0.4-0.7-1.3-0.9-2-0.5C1009.6,818.4,1009.4,819.3,1009.8,820z"/>
			<path fill="#FFFFFF" d="M983.7,840.8l2.5,0.6l-0.6,2.4c-0.2,0.8,0.3,1.5,1.1,1.7c0.8,0.2,1.5-0.3,1.7-1.1l0.6-2.4l2.5,0.6
				c0.8,0.2,1.5-0.3,1.7-1.1c0.2-0.8-0.3-1.5-1.1-1.7l-2.4-0.6l0.6-2.4c0.2-0.8-0.3-1.5-1.1-1.7c-0.8-0.2-1.5,0.3-1.7,1.1l-0.6,2.4
				l-2.4-0.6c-0.8-0.2-1.5,0.3-1.7,1.1C982.5,839.9,983,840.6,983.7,840.8z"/>
			<circle fill="#FFFFFF" cx="990.3" cy="818.3" r="2.6"/>
		</g>
		<g>
			<path fill="#FFFFFF" d="M339,871l1.3,2.1l-2.1,1.3c-0.7,0.4-0.9,1.3-0.5,2c0.4,0.7,1.3,0.9,2,0.5l2.1-1.3l1.3,2.1
				c0.4,0.7,1.3,0.9,2,0.5c0.7-0.4,0.9-1.3,0.5-2l-1.3-2.1l2.1-1.3c0.7-0.4,0.9-1.3,0.5-2s-1.3-0.9-2-0.5l-2.1,1.3l-1.3-2.1
				c-0.4-0.7-1.3-0.9-2-0.5C338.8,869.5,338.6,870.3,339,871z"/>
			<path fill="#FFFFFF" d="M313,891.9l2.5,0.6l-0.6,2.4c-0.2,0.8,0.3,1.5,1.1,1.7c0.8,0.2,1.5-0.3,1.7-1.1l0.6-2.4l2.5,0.6
				c0.8,0.2,1.5-0.3,1.7-1.1c0.2-0.8-0.3-1.5-1.1-1.7l-2.4-0.6l0.6-2.4c0.2-0.8-0.3-1.5-1.1-1.7c-0.8-0.2-1.5,0.3-1.7,1.1l-0.6,2.4
				l-2.4-0.6c-0.8-0.2-1.5,0.3-1.7,1.1C311.7,890.9,312.2,891.7,313,891.9z"/>
			<circle fill="#FFFFFF" cx="319.5" cy="869.4" r="2.6"/>
		</g>
		<g>
			<path fill="#FFFFFF" d="M237.7,241.4l1.7,1.9l-1.9,1.7c-0.6,0.5-0.6,1.4-0.1,2c0.5,0.6,1.4,0.6,2,0.1l1.9-1.7l1.7,1.9
				c0.5,0.6,1.4,0.6,2,0.1c0.6-0.5,0.6-1.4,0.1-2l-1.7-1.9l1.9-1.7c0.6-0.5,0.6-1.4,0.1-2c-0.5-0.6-1.4-0.6-2-0.1l-1.9,1.7l-1.7-1.9
				c-0.5-0.6-1.4-0.6-2-0.1C237.2,239.9,237.2,240.8,237.7,241.4z"/>
			<path fill="#FFFFFF" d="M215.7,266.4l2.5,0.1l-0.1,2.5c0,0.8,0.6,1.5,1.3,1.5c0.8,0,1.5-0.6,1.5-1.3l0.1-2.5l2.5,0.1
				c0.8,0,1.5-0.6,1.5-1.3c0-0.8-0.6-1.5-1.3-1.5l-2.5-0.1l0.1-2.5c0-0.8-0.6-1.5-1.3-1.5c-0.8,0-1.5,0.6-1.5,1.3l-0.1,2.5l-2.5-0.1
				c-0.8,0-1.5,0.6-1.5,1.3C214.3,265.7,214.9,266.4,215.7,266.4z"/>
			<circle fill="#FFFFFF" cx="218.2" cy="243.1" r="2.6"/>
		</g>
		<linearGradient id="SVGID_13_" gradientUnits="userSpaceOnUse" x1="242.9399" y1="513.749" x2="1169.2715" y2="513.749">
			<stop  offset="0" style="stop-color:#79FFD0"/>
			<stop  offset="0.1518" style="stop-color:#6FF8CE"/>
			<stop  offset="0.4144" style="stop-color:#52E5C8"/>
			<stop  offset="0.7539" style="stop-color:#25C7BF"/>
			<stop  offset="1" style="stop-color:#00AEB8"/>
			<a:midPointStop  offset="0" style="stop-color:#79FFD0"/>
			<a:midPointStop  offset="0.5863" style="stop-color:#79FFD0"/>
			<a:midPointStop  offset="1" style="stop-color:#00AEB8"/>
		</linearGradient>
		<path fill="url(#SVGID_13_)" d="M1023.5,672c-58.5,29.2-120.2,54.8-183.5,74.2c-158.6,48.6-327.7,58.8-484.4-8
			c-37.2-15.8-75.2-32.4-112.6-50.5c215,34.6,408.5-55.2,482.9-171.9c4.5-4.2,8.8-8.5,12.9-13.1c38.7-42.5,65.5-102.3,98-153.9
			c29.6-47.2,63.9-87.6,116.1-101.9c52.2-14.2,98.6,4.1,134.9,36.8c33.6,30.3,58.6,72.8,71.5,113c5.1,15.9,8.2,31.6,9.5,47
			C1176.6,542.1,1110.6,628.5,1023.5,672z"/>
	</g>
</g>
</svg>
